#!OML:ASF H:\Dans Jumps\Project 1\Capture day 1\Session 1\subject.ASF
:FULLY-SPECIFIED
:DEGREES
364
root -0.0777635 24.7865 -10.0938 11.7034 2.45005 0.0185711
lowerback 11.5899 -0.420926 -3.82194
upperback 6.81114 -0.893705 1.82178
thorax 0.725331 -0.589462 4.14568
lowerneck -13.9086 -0.193106 -0.397228
upperneck 24.9684 -0.13657 -0.144809
head 10.2632 -0.117349 -0.0012432
rclavicle 7.60351e-015 -2.5842e-015
rhumerus -43.6095 -2.35442 -80.1716
rradius 67.5245
rwrist 14.994
rhand -27.0012 -27.4935
rfingers 7.12502
rthumb -0.421258 -57.4728
lclavicle 7.60351e-015 -2.5842e-015
lhumerus -61.622 -16.2971 96.0668
lradius 72.2965
lwrist 47.6876
lhand -36.1574 -18.7497
lfingers 7.12502
lthumb -9.26173 11.0269
rfemur -33.5688 -11.1418 20.63
rtibia 54.016
rfoot 21.2342 -4.05161
rtoes 23.4006
lfemur -35.2228 10.2558 -18.2936
ltibia 47.4985
lfoot 27.2772 -4.76506
ltoes 5.86688
365
root -0.071798 24.8839 -10.0382 11.6607 2.45339 -0.0290742
lowerback 11.8724 -0.397508 -3.71831
upperback 6.89631 -0.860965 1.84268
thorax 0.657144 -0.570481 4.10969
lowerneck -13.8878 -0.197698 -0.400879
upperneck 25.0068 -0.147512 -0.124042
head 10.2732 -0.120221 0.0053347
rclavicle 1.12313e-014 -7.95139e-015
rhumerus -42.855 -2.36252 -80.4885
rradius 66.4982
rwrist 15.5515
rhand -27.1121 -27.4619
rfingers 7.12502
rthumb -0.528404 -57.4409
lclavicle 1.12313e-014 -7.95139e-015
lhumerus -60.388 -16.5252 96.2498
lradius 71.3075
lwrist 47.3079
lhand -35.9169 -18.7784
lfingers 7.12502
lthumb -9.0296 11.0084
rfemur -34.3859 -11.0403 20.7838
rtibia 54.2601
rfoot 20.5901 -3.92294
rtoes 22.9501
lfemur -35.7219 10.0915 -18.3645
ltibia 47.4834
lfoot 26.8534 -4.95588
ltoes 5.56727
366
root -0.0653188 24.9674 -9.98007 11.601 2.42488 -0.0733993
lowerback 12.1499 -0.364804 -3.61925
upperback 6.97439 -0.815944 1.85769
thorax 0.583397 -0.545176 4.06851
lowerneck -13.8613 -0.195563 -0.373682
upperneck 25.061 -0.147269 -0.139129
head 10.2877 -0.119276 -0.00458758
rclavicle -1.42131e-014 -1.33186e-014
rhumerus -42.1722 -2.32102 -80.8027
rradius 65.6113
rwrist 15.7734
rhand -27.204 -27.4041
rfingers 7.12502
rthumb -0.617071 -57.3829
lclavicle -1.42131e-014 -1.33186e-014
lhumerus -59.1833 -16.7037 96.3638
lradius 70.3802
lwrist 46.8143
lhand -35.7803 -18.6982
lfingers 7.12502
lthumb -8.89776 11.0942
rfemur -35.0987 -10.9277 20.924
rtibia 54.2845
rfoot 19.9478 -3.8222
rtoes 22.5193
lfemur -36.1319 9.99421 -18.4546
ltibia 47.3216
lfoot 26.3538 -5.0784
ltoes 5.26437
367
root -0.0588538 25.0379 -9.91912 11.5419 2.37002 -0.114478
lowerback 12.3947 -0.324051 -3.52686
upperback 7.03934 -0.759779 1.8688
thorax 0.512805 -0.514312 4.02502
lowerneck -13.8295 -0.194037 -0.338375
upperneck 25.1418 -0.146958 -0.165153
head 10.3109 -0.118823 -0.0197744
rclavicle 1.98785e-016 2.08724e-015
rhumerus -41.5921 -2.246 -81.1077
rradius 64.8935
rwrist 15.7302
rhand -27.2829 -27.3382
rfingers 7.12502
rthumb -0.693301 -57.3168
lclavicle 1.98785e-016 2.08724e-015
lhumerus -58.0265 -16.8365 96.4201
lradius 69.5158
lwrist 46.2141
lhand -35.7344 -18.5506
lfingers 7.12502
lthumb -8.85354 11.2437
rfemur -35.7254 -10.8164 21.0563
rtibia 54.1056
rfoot 19.3051 -3.72494
rtoes 22.031
lfemur -36.4751 9.96627 -18.5638
ltibia 47.0304
lfoot 25.8068 -5.12858
ltoes 4.98523
368
root -0.0524687 25.0958 -9.85533 11.5043 2.28516 -0.155602
lowerback 12.5732 -0.274381 -3.43425
upperback 7.08792 -0.689907 1.87297
thorax 0.459505 -0.476616 3.97126
lowerneck -13.7931 -0.191519 -0.29441
upperneck 25.2513 -0.146512 -0.194275
head 10.3436 -0.117855 -0.0375545
rclavicle -1.09332e-014 1.15295e-014
rhumerus -41.1145 -2.15896 -81.4007
rradius 64.3269
rwrist 15.5443
rhand -27.3653 -27.2575
rfingers 7.12502
rthumb -0.772898 -57.2358
lclavicle -1.09332e-014 1.15295e-014
lhumerus -56.9225 -16.9356 96.4205
lradius 68.7193
lwrist 45.5623
lhand -35.752 -18.4264
lfingers 7.12502
lthumb -8.87047 11.3672
rfemur -36.2908 -10.7189 21.1884
rtibia 53.7417
rfoot 18.6928 -3.61808
rtoes 21.561
lfemur -36.7799 10.0137 -18.6915
ltibia 46.6294
lfoot 25.2293 -5.13127
ltoes 4.72872
369
root -0.0460687 25.1415 -9.78807 11.4896 2.18932 -0.195065
lowerback 12.6935 -0.218996 -3.34382
upperback 7.10974 -0.611108 1.87692
thorax 0.408718 -0.434153 3.91643
lowerneck -13.7427 -0.19088 -0.254198
upperneck 25.3834 -0.148656 -0.219678
head 10.3819 -0.117953 -0.0537407
rclavicle -1.05356e-014 6.16232e-015
rhumerus -40.7443 -2.08389 -81.6578
rradius 63.8726
rwrist 15.3604
rhand -27.4149 -27.1882
rfingers 7.12502
rthumb -0.820795 -57.1663
lclavicle -1.05356e-014 6.16232e-015
lhumerus -55.8872 -17.0041 96.3791
lradius 68.005
lwrist 44.9278
lhand -35.7825 -18.275
lfingers 7.12502
lthumb -8.89989 11.5173
rfemur -36.7903 -10.6628 21.3238
rtibia 53.2067
rfoot 18.1365 -3.49434
rtoes 21.0553
lfemur -37.0467 10.1128 -18.8329
ltibia 46.1305
lfoot 24.6625 -5.09034
ltoes 4.5963
370
root -0.0398715 25.1751 -9.71721 11.4924 2.08927 -0.228846
lowerback 12.7529 -0.161024 -3.26262
upperback 7.10807 -0.528269 1.87911
thorax 0.36588 -0.389714 3.86355
lowerneck -13.6793 -0.19391 -0.225429
upperneck 25.5287 -0.158113 -0.226121
head 10.4227 -0.120215 -0.062207
rclavicle -4.27387e-015 -7.95139e-016
rhumerus -40.4699 -2.01714 -81.8796
rradius 63.5102
rwrist 15.2393
rhand -27.4368 -27.0839
rfingers 7.12502
rthumb -0.842004 -57.062
lclavicle -4.27387e-015 -7.95139e-016
lhumerus -54.9247 -17.0522 96.2946
lradius 67.3971
lwrist 44.3803
lhand -35.8056 -18.1354
lfingers 7.12502
lthumb -8.92225 11.6559
rfemur -37.2151 -10.6578 21.4614
rtibia 52.5133
rfoot 17.6683 -3.3745
rtoes 20.5538
lfemur -37.2682 10.2593 -18.9892
ltibia 45.5434
lfoot 24.127 -5.04057
ltoes 4.57579
371
root -0.0339331 25.1962 -9.64277 11.5068 1.99635 -0.258288
lowerback 12.7545 -0.103653 -3.18835
upperback 7.08805 -0.445477 1.88031
thorax 0.33504 -0.345445 3.81279
lowerneck -13.6008 -0.202272 -0.20985
upperneck 25.6753 -0.176685 -0.214218
head 10.461 -0.12568 -0.0630613
rclavicle -1.98785e-016 -9.93923e-015
rhumerus -40.273 -1.94917 -82.0721
rradius 63.2228
rwrist 15.1911
rhand -27.4558 -27.0152
rfingers 7.12502
rthumb -0.860296 -56.9932
lclavicle -1.98785e-016 -9.93923e-015
lhumerus -54.0274 -17.0857 96.165
lradius 66.9039
lwrist 43.9678
lhand -35.7761 -18.0032
lfingers 7.12502
lthumb -8.89377 11.7893
rfemur -37.556 -10.7116 21.6025
rtibia 51.672
rfoot 17.3058 -3.2908
rtoes 20.1468
lfemur -37.4353 10.4238 -19.1488
ltibia 44.8738
lfoot 23.6276 -4.96308
ltoes 4.62881
372
root -0.0283795 25.2042 -9.56418 11.5181 1.91549 -0.278101
lowerback 12.7057 -0.0505684 -3.12945
upperback 7.05794 -0.368711 1.87877
thorax 0.321555 -0.304761 3.76803
lowerneck -13.5213 -0.21399 -0.195889
upperneck 25.8273 -0.202047 -0.193231
head 10.5013 -0.133291 -0.0612773
rclavicle 8.64713e-015 -7.35503e-015
rhumerus -40.1204 -1.86729 -82.2418
rradius 62.9819
rwrist 15.2132
rhand -27.477 -26.9627
rfingers 7.12502
rthumb -0.880805 -56.9407
lclavicle 8.64713e-015 -7.35503e-015
lhumerus -53.1934 -17.1044 95.9868
lradius 66.5353
lwrist 43.6959
lhand -35.6717 -17.9075
lfingers 7.12502
lthumb -8.79296 11.8893
rfemur -37.7907 -10.82 21.7366
rtibia 50.6941
rfoot 17.0476 -3.24762
rtoes 19.8168
lfemur -37.5258 10.5973 -19.3117
ltibia 44.1269
lfoot 23.1514 -4.87247
ltoes 4.69774
373
root -0.0232188 25.199 -9.48091 11.5096 1.85273 -0.287034
lowerback 12.6043 -0.00385119 -3.07994
upperback 7.02639 -0.30008 1.87046
thorax 0.335765 -0.268785 3.72201
lowerneck -13.4235 -0.229833 -0.17919
upperneck 25.9767 -0.235957 -0.164953
head 10.5371 -0.143614 -0.0584165
rclavicle 9.93923e-017 2.5842e-015
rhumerus -40.0215 -1.74957 -82.3992
rradius 62.8158
rwrist 15.2697
rhand -27.5089 -26.9597
rfingers 7.12502
rthumb -0.911587 -56.9375
lclavicle 9.93923e-017 2.5842e-015
lhumerus -52.4315 -17.1258 95.7658
lradius 66.2988
lwrist 43.5421
lhand -35.5146 -17.8025
lfingers 7.12502
lthumb -8.64141 12.0007
rfemur -37.8925 -10.9798 21.8542
rtibia 49.5901
rfoot 16.8709 -3.23828
rtoes 19.5521
lfemur -37.5129 10.76 -19.4696
ltibia 43.3046
lfoot 22.6944 -4.76104
ltoes 4.7794
374
root -0.0186903 25.18 -9.39326 11.4711 1.81368 -0.29198
lowerback 12.4668 0.0349206 -3.03615
upperback 6.99369 -0.241646 1.85951
thorax 0.369256 -0.238337 3.6775
lowerneck -13.3094 -0.24747 -0.146767
upperneck 26.1292 -0.273128 -0.148542
head 10.5709 -0.155227 -0.0628546
rclavicle -1.19271e-015 -8.15017e-015
rhumerus -39.9725 -1.58009 -82.546
rradius 62.7256
rwrist 15.3507
rhand -27.5632 -27.0046
rfingers 7.12502
rthumb -0.964015 -56.9822
lclavicle -1.19271e-015 -8.15017e-015
lhumerus -51.7531 -17.1508 95.5115
lradius 66.1989
lwrist 43.4505
lhand -35.324 -17.6996
lfingers 7.12502
lthumb -8.45743 12.1111
rfemur -37.8505 -11.1771 21.9572
rtibia 48.3735
rfoot 16.7685 -3.23639
rtoes 19.3134
lfemur -37.3875 10.9015 -19.6075
ltibia 42.4123
lfoot 22.253 -4.63994
ltoes 4.86669
